<svg width="16" height="16" viewBox="0 0 16 16" fill="none" xmlns="http://www.w3.org/2000/svg">
<path d="M4.66797 7.33301H6.0013V8.66634H4.66797V7.33301ZM4.66797 9.99967H6.0013V11.333H4.66797V9.99967ZM7.33464 7.33301H8.66797V8.66634H7.33464V7.33301ZM7.33464 9.99967H8.66797V11.333H7.33464V9.99967ZM10.0013 7.33301H11.3346V8.66634H10.0013V7.33301ZM10.0013 9.99967H11.3346V11.333H10.0013V9.99967Z" fill="#D9D9D9"/>
<path d="M3.33333 14.6663H12.6667C13.402 14.6663 14 14.0683 14 13.333V3.99967C14 3.26434 13.402 2.66634 12.6667 2.66634H11.3333V1.33301H10V2.66634H6V1.33301H4.66667V2.66634H3.33333C2.598 2.66634 2 3.26434 2 3.99967V13.333C2 14.0683 2.598 14.6663 3.33333 14.6663ZM12.6667 5.33301L12.6673 13.333H3.33333V5.33301H12.6667Z" fill="#808080"/>
</svg>
