<svg width="24" height="24" viewBox="0 0 24 24" fill="none" xmlns="http://www.w3.org/2000/svg">
<path d="M18.988 2.01221L21.988 5.01221L19.701 7.30021L16.701 4.30021L18.988 2.01221ZM8 16.0002H11L18.287 8.71321L15.287 5.71321L8 13.0002V16.0002Z" fill="#808080"/>
<path d="M19 19.0002H8.158C8.132 19.0002 8.105 19.0102 8.079 19.0102C8.046 19.0102 8.013 19.0012 7.979 19.0002H5V5.00024H11.847L13.847 3.00024H5C3.897 3.00024 3 3.89624 3 5.00024V19.0002C3 20.1042 3.897 21.0002 5 21.0002H19C19.5304 21.0002 20.0391 20.7895 20.4142 20.4145C20.7893 20.0394 21 19.5307 21 19.0002V10.3322L19 12.3322V19.0002Z" fill="#808080"/>
</svg>
