<svg width="16" height="16" viewBox="0 0 16 16" fill="none" xmlns="http://www.w3.org/2000/svg">
<path d="M5.64392 7.52871C6.39925 6.77338 7.71658 6.77338 8.47192 7.52871L8.94325 8.00004L9.88592 7.05738L9.41458 6.58604C8.78592 5.95671 7.94859 5.60938 7.05792 5.60938C6.16725 5.60938 5.32992 5.95671 4.70125 6.58604L3.28658 8.00004C2.66278 8.62585 2.3125 9.47343 2.3125 10.357C2.3125 11.2407 2.66278 12.0882 3.28658 12.714C3.59583 13.0237 3.96323 13.2693 4.36766 13.4365C4.7721 13.6038 5.20559 13.6895 5.64325 13.6887C6.08103 13.6896 6.51466 13.604 6.91922 13.4367C7.32378 13.2694 7.69128 13.0238 8.00058 12.714L8.47192 12.2427L7.52925 11.3L7.05792 11.7714C6.68223 12.1454 6.1737 12.3554 5.64358 12.3554C5.11347 12.3554 4.60494 12.1454 4.22925 11.7714C3.85492 11.3959 3.64472 10.8873 3.64472 10.357C3.64472 9.82682 3.85492 9.31822 4.22925 8.94271L5.64392 7.52871Z" fill="#00B140"/>
<path d="M7.99993 3.28579L7.52859 3.75713L8.47126 4.69979L8.94259 4.22846C9.31828 3.85445 9.82681 3.64448 10.3569 3.64448C10.887 3.64448 11.3956 3.85445 11.7713 4.22846C12.1456 4.60397 12.3558 5.11257 12.3558 5.64279C12.3558 6.17301 12.1456 6.68161 11.7713 7.05713L10.3566 8.47113C9.60126 9.22646 8.28393 9.22646 7.52859 8.47113L7.05726 7.99979L6.11459 8.94246L6.58593 9.41379C7.21459 10.0431 8.05193 10.3905 8.94259 10.3905C9.83326 10.3905 10.6706 10.0431 11.2993 9.41379L12.7139 7.99979C13.3377 7.37398 13.688 6.5264 13.688 5.64279C13.688 4.75918 13.3377 3.9116 12.7139 3.28579C12.0883 2.66166 11.2406 2.31116 10.3569 2.31116C9.47321 2.31116 8.62556 2.66166 7.99993 3.28579Z" fill="#00B140"/>
</svg>
