<svg width="24" height="24" viewBox="0 0 24 24" fill="none" xmlns="http://www.w3.org/2000/svg">
<path d="M20 4.00024H4C2.897 4.00024 2 4.89724 2 6.00024V18.0002C2 19.1032 2.897 20.0002 4 20.0002H20C21.103 20.0002 22 19.1032 22 18.0002V6.00024C22 4.89724 21.103 4.00024 20 4.00024ZM8.715 8.00024C9.866 8.00024 10.715 8.84924 10.715 10.0002C10.715 11.1512 9.866 12.0002 8.715 12.0002C7.564 12.0002 6.715 11.1512 6.715 10.0002C6.715 8.84924 7.563 8.00024 8.715 8.00024ZM12.43 16.0002H5V15.5352C5 14.1622 6.676 12.7502 8.715 12.7502C10.754 12.7502 12.43 14.1622 12.43 15.5352V16.0002ZM19 15.0002H15V13.0002H19V15.0002ZM19 11.0002H14V9.00024H19V11.0002Z" fill="white"/>
</svg>
