<svg width="24" height="24" viewBox="0 0 24 24" fill="none" xmlns="http://www.w3.org/2000/svg">
<path d="M11.9991 8.25024C11.2574 8.25024 10.5324 8.47018 9.9157 8.88223C9.29902 9.29429 8.81837 9.87996 8.53454 10.5652C8.25071 11.2504 8.17645 12.0044 8.32115 12.7318C8.46584 13.4593 8.82299 14.1274 9.34744 14.6519C9.87189 15.1763 10.5401 15.5335 11.2675 15.6782C11.9949 15.8229 12.7489 15.7486 13.4342 15.4648C14.1194 15.181 14.705 14.7003 15.1171 14.0836C15.5292 13.4669 15.7491 12.7419 15.7491 12.0002C15.7461 11.0066 15.3501 10.0545 14.6475 9.35187C13.9448 8.64925 12.9927 8.25321 11.9991 8.25024ZM20.0953 12.0002C20.0934 12.3506 20.0677 12.7005 20.0185 13.0474L22.3008 14.8343C22.4002 14.9164 22.4672 15.0311 22.4898 15.1581C22.5124 15.285 22.4891 15.4158 22.4241 15.5271L20.265 19.2546C20.1994 19.365 20.097 19.4486 19.9757 19.4909C19.8545 19.5332 19.7222 19.5313 19.6022 19.4857L16.9186 18.4076C16.3598 18.8379 15.7483 19.195 15.0989 19.4702L14.6977 22.3193C14.6752 22.4469 14.6091 22.5628 14.5107 22.6471C14.4123 22.7314 14.2877 22.7789 14.1582 22.7815H9.84003C9.71283 22.779 9.59023 22.7335 9.49224 22.6524C9.39425 22.5712 9.32666 22.4593 9.3005 22.3348L8.89925 19.4857C8.24809 19.2137 7.63613 18.856 7.07956 18.4221L4.39597 19.5002C4.27601 19.5459 4.14379 19.5478 4.02256 19.5056C3.90133 19.4635 3.79886 19.3799 3.73315 19.2696L1.57409 15.5426C1.5091 15.4313 1.48582 15.3004 1.5084 15.1735C1.53099 15.0466 1.59797 14.9319 1.69737 14.8498L3.97972 13.0629C3.93103 12.7107 3.90535 12.3558 3.90284 12.0002C3.90479 11.6498 3.93047 11.3 3.97972 10.9531L1.69737 9.16618C1.59797 9.0841 1.53099 8.96935 1.5084 8.84243C1.48582 8.71551 1.5091 8.5847 1.57409 8.47337L3.73315 4.74587C3.79879 4.63552 3.90123 4.55186 4.02246 4.50959C4.1437 4.46732 4.27595 4.46916 4.39597 4.51478L7.07956 5.5929C7.63837 5.16259 8.24988 4.80548 8.89925 4.53024L9.3005 1.68118C9.32295 1.55356 9.38903 1.43771 9.48744 1.35341C9.58585 1.26911 9.71048 1.2216 9.84003 1.21899H14.1582C14.2853 1.22147 14.4079 1.26699 14.5059 1.34812C14.6039 1.42926 14.6715 1.54121 14.6977 1.66571L15.0989 4.51478C15.7509 4.78664 16.3637 5.14433 16.921 5.57837L19.6022 4.50024C19.7222 4.45458 19.8544 4.45268 19.9756 4.49486C20.0968 4.53704 20.1993 4.62061 20.265 4.73087L22.4241 8.45837C22.4891 8.5697 22.5124 8.70051 22.4898 8.82743C22.4672 8.95435 22.4002 9.0691 22.3008 9.15118L20.0185 10.9381C20.0671 11.2901 20.0928 11.6449 20.0953 12.0002Z" fill="#808080"/>
</svg>
