<svg width="24" height="24" viewBox="0 0 24 24" fill="none" xmlns="http://www.w3.org/2000/svg">
<path d="M3 5.00024V19.0002C3 19.5307 3.21071 20.0394 3.58579 20.4145C3.96086 20.7895 4.46957 21.0002 5 21.0002H19C19.5304 21.0002 20.0391 20.7895 20.4142 20.4145C20.7893 20.0394 21 19.5307 21 19.0002V5.00024C21 4.46981 20.7893 3.9611 20.4142 3.58603C20.0391 3.21096 19.5304 3.00024 19 3.00024H5C4.46957 3.00024 3.96086 3.21096 3.58579 3.58603C3.21071 3.9611 3 4.46981 3 5.00024ZM10 7.00024H18V9.00024H10V7.00024ZM10 11.0002H18V13.0002H10V11.0002ZM10 15.0002H18V17.0002H10V15.0002ZM6 7.00024H8V9.00024H6V7.00024ZM6 11.0002H8V13.0002H6V11.0002ZM6 15.0002H8V17.0002H6V15.0002Z" fill="#808080"/>
</svg>
