<svg width="24" height="24" viewBox="0 0 24 24" fill="none" xmlns="http://www.w3.org/2000/svg">
<path d="M21 3.00024H14C13.2596 3.00275 12.5466 3.28081 12 3.78024C11.4534 3.28081 10.7404 3.00275 10 3.00024H3C2.73478 3.00024 2.48043 3.1056 2.29289 3.29314C2.10536 3.48067 2 3.73503 2 4.00024V19.0002C2 19.2655 2.10536 19.5198 2.29289 19.7074C2.48043 19.8949 2.73478 20.0002 3 20.0002H8.758C9.28817 20.0014 9.7964 20.2121 10.172 20.5862L11.293 21.7072C11.302 21.7162 11.314 21.7192 11.323 21.7282C11.409 21.8082 11.505 21.8782 11.617 21.9242H11.619C11.863 22.0252 12.137 22.0252 12.381 21.9242H12.383C12.495 21.8782 12.591 21.8072 12.677 21.7282C12.686 21.7192 12.698 21.7162 12.707 21.7072L13.828 20.5862C14.2036 20.2121 14.7118 20.0014 15.242 20.0002H21C21.2652 20.0002 21.5196 19.8949 21.7071 19.7074C21.8946 19.5198 22 19.2655 22 19.0002V4.00024C22 3.73503 21.8946 3.48067 21.7071 3.29314C21.5196 3.1056 21.2652 3.00024 21 3.00024ZM20 18.0002H15.242C14.4429 18.0025 13.6625 18.2424 13 18.6892V6.00024C13 5.44924 13.448 5.00024 14 5.00024H20V18.0002Z" fill="#808080"/>
</svg>
